HIERARCHY
ROOT Pelvis
{
	OFFSET 0.000000 0.000000 0.000000
	CHANNELS 6 Xposition Yposition Zposition Xrotation Yrotation Zrotation
	JOINT LeftUpLeg_virtual
	{
		OFFSET 0.000000 0.000000 0.000000
		CHANNELS 3 Xrotation Yrotation Zrotation
		JOINT LeftUpLeg
		{
			OFFSET 18.735201 -5.666702 -4.541200
			CHANNELS 3 Xrotation Yrotation Zrotation
			JOINT LeftLeg
			{
				OFFSET -0.021200 -31.938179 0.493100
				CHANNELS 3 Xrotation Yrotation Zrotation
				JOINT LeftFoot
				{
					OFFSET 0.021200 -31.938179 -4.336299
					CHANNELS 3 Xrotation Yrotation Zrotation
					JOINT LeftToeBase
					{
						OFFSET 0.943001 -26.722000 15.023500
						CHANNELS 3 Xrotation Yrotation Zrotation
						End Site
						{
							OFFSET 0 0 0
						}
					}
				}
			}
		}
	}
	JOINT RightUpLeg_virtual
	{
		OFFSET 0.000000 0.000000 0.000000
		CHANNELS 3 Xrotation Yrotation Zrotation
		JOINT RightUpLeg
		{
			OFFSET -18.735201 -5.666702 -4.541200
			CHANNELS 3 Xrotation Yrotation Zrotation
			JOINT RightLeg
			{
				OFFSET 0.018946 -31.938133 0.493100
				CHANNELS 3 Xrotation Yrotation Zrotation
				JOINT RightFoot
				{
					OFFSET -0.018946 -31.938126 -4.336299
					CHANNELS 3 Xrotation Yrotation Zrotation
					JOINT RightToeBase
					{
						OFFSET -0.943001 -26.722004 15.023500
						CHANNELS 3 Xrotation Yrotation Zrotation
						End Site
						{
							OFFSET 0 0 0
						}
					}
				}
			}
		}
	}
	JOINT Hips_virtual
	{
		OFFSET 0.000000 0.000000 0.000000
		CHANNELS 3 Xrotation Yrotation Zrotation
		JOINT Hips
		{
			OFFSET -0.000000 -0.000000 -0.000000
			CHANNELS 3 Xrotation Yrotation Zrotation
			JOINT Spine
			{
				OFFSET 0.000000 10.199997 -0.299500
				CHANNELS 3 Xrotation Yrotation Zrotation
				JOINT Spine1
				{
					OFFSET 0.000000 11.900002 -1.516600
					CHANNELS 3 Xrotation Yrotation Zrotation
					JOINT Spine2
					{
						OFFSET 0.000000 13.600006 -2.842500
						CHANNELS 3 Xrotation Yrotation Zrotation
						JOINT Neck_virtual
						{
							OFFSET 0.000000 0.000000 0.000000
							CHANNELS 3 Xrotation Yrotation Zrotation
							JOINT Neck
							{
								OFFSET 0.000000 9.624100 -2.890100
								CHANNELS 3 Xrotation Yrotation Zrotation
								JOINT Head
								{
									OFFSET 0.000000 14.068802 -1.351900
									CHANNELS 3 Xrotation Yrotation Zrotation
									End Site
									{
										OFFSET 0 0 0
									}
								}
							}
						}
						JOINT LeftShoulder_virtual
						{
							OFFSET 0.000000 0.000000 0.000000
							CHANNELS 3 Xrotation Yrotation Zrotation
							JOINT LeftShoulder
							{
								OFFSET 15.263000 10.923401 -0.547700
								CHANNELS 3 Xrotation Yrotation Zrotation
								JOINT LeftArm
								{
									OFFSET 25.438599 -2.830597 -13.032500
									CHANNELS 3 Xrotation Yrotation Zrotation
									JOINT LeftForeArm
									{
										OFFSET 29.960503 0.000000 0.000000
										CHANNELS 3 Xrotation Yrotation Zrotation
										JOINT LeftHand
										{
											OFFSET 27.849251 0.000000 0.000000
											CHANNELS 3 Xrotation Yrotation Zrotation
											End Site
											{
												OFFSET 0 0 0
											}
										}
									}
								}
							}
						}
						JOINT RightShoulder_virtual
						{
							OFFSET 0.000000 0.000000 0.000000
							CHANNELS 3 Xrotation Yrotation Zrotation
							JOINT RightShoulder
							{
								OFFSET -15.263000 10.923401 -0.547700
								CHANNELS 3 Xrotation Yrotation Zrotation
								JOINT RightArm
								{
									OFFSET -25.438599 -2.830597 -13.032500
									CHANNELS 3 Xrotation Yrotation Zrotation
									JOINT RightForeArm
									{
										OFFSET -29.960503 0.000000 0.000000
										CHANNELS 3 Xrotation Yrotation Zrotation
										JOINT RightHand
										{
											OFFSET -27.849251 0.000000 0.000000
											CHANNELS 3 Xrotation Yrotation Zrotation
											End Site
											{
												OFFSET 0 0 0
											}
										}
									}
								}
							}
						}
					}
				}
			}
		}
	}
}
MOTION
Frames: 4
Frame Time: 0.03333333
13.249220 63.725197 -39.448494 0.000000 0.000000 0.000000 16.578860 -56.751997 2.770125 -27.386922 -0.404016 9.428288 83.734868 -6.142736 -3.191992 25.184306 -7.111327 -16.188610 0.000000 0.000000 0.000000 -13.610694 -44.930282 -6.498376 -53.596228 -10.302059 -24.307301 76.698407 -8.081540 2.348729 5.060261 -9.859331 7.541786 0.000000 0.000000 0.000000 16.698998 -8.991470 3.344383 52.209023 -5.031505 6.060260 23.645234 6.161531 0.689668 10.963325 2.777757 1.573492 0.000000 0.000000 0.000000 2.046160 1.004464 -0.247959 0.197831 -0.688684 0.137433 0.000000 0.000000 0.000000 8.484138 1.013942 -1.033199 2.941476 -13.628061 -4.060022 -25.195419 -13.636093 -40.896219 -0.793370 -48.906842 -4.947627 0.000000 0.000000 0.000000 7.147656 2.868190 0.719574 5.060398 19.051172 -0.791173 -24.382536 32.348466 11.831423 -1.095587 48.979266 -6.476807 0.000000 0.000000 0.000000 
13.159325 64.040779 -39.099167 0.000000 0.000000 0.000000 16.247908 -57.407638 3.125872 -28.341706 -0.718015 9.908487 84.789470 -5.871657 -3.359362 26.195172 -6.814590 -16.187079 0.000000 0.000000 0.000000 -12.993169 -44.712652 -6.210648 -52.993580 -10.417466 -24.222581 76.179477 -7.953327 2.519822 4.861428 -9.877149 7.907169 0.000000 0.000000 0.000000 16.472541 -9.408557 3.353072 51.758480 -5.516709 6.095966 23.687451 6.155152 0.444512 10.989571 2.786564 1.414521 0.000000 0.000000 0.000000 2.147207 1.041085 -0.397027 0.227489 -0.667265 0.075149 0.000000 0.000000 0.000000 8.553892 1.010569 -1.136593 3.050182 -13.713531 -4.264045 -24.980900 -13.232879 -40.771711 -0.786508 -48.366062 -4.867317 0.000000 0.000000 0.000000 7.142757 2.884026 0.630368 5.144000 19.012163 -0.960504 -24.319939 32.416037 12.330757 -1.129983 49.115289 -6.209613 0.000000 0.000000 0.000000 
13.084467 64.416672 -38.703873 0.000000 0.000000 0.000000 15.917513 -58.076873 3.510823 -29.337264 -1.046221 10.419444 85.927564 -5.775550 -3.523831 27.201527 -6.710590 -16.350447 0.000000 0.000000 0.000000 -12.306249 -44.440964 -5.921732 -52.307440 -10.529112 -24.150181 75.654365 -7.815609 2.702589 4.614369 -9.890828 8.298266 0.000000 0.000000 0.000000 16.225171 -9.784422 3.347713 51.223113 -5.963459 6.078897 23.717745 6.154428 0.182840 11.014606 2.797653 1.243738 0.000000 0.000000 0.000000 2.255632 1.084717 -0.565017 0.262549 -0.641343 0.003121 0.000000 0.000000 0.000000 8.614761 1.006684 -1.244483 3.154587 -13.810639 -4.462014 -24.811260 -12.828111 -40.607595 -0.787473 -47.799703 -4.782134 0.000000 0.000000 0.000000 7.155571 2.897814 0.510004 5.280487 18.978721 -1.276759 -24.229930 32.584162 12.767193 -1.140027 49.321616 -5.973905 0.000000 0.000000 0.000000 
12.997101 64.797104 -38.265221 0.000000 0.000000 0.000000 15.673433 -58.777890 4.022271 -30.330049 -1.407479 11.005061 87.106400 -5.842672 -3.638525 28.167944 -6.809055 -16.600604 0.000000 0.000000 0.000000 -11.543260 -44.018315 -5.620923 -51.526049 -10.616541 -24.076354 75.083341 -7.666335 2.887435 4.301885 -9.896213 8.705632 0.000000 0.000000 0.000000 15.958399 -10.112246 3.331890 50.601576 -6.359783 6.043249 23.738999 6.163200 -0.096651 11.040828 2.812788 1.060853 0.000000 0.000000 0.000000 2.359320 1.133867 -0.743538 0.297965 -0.612675 -0.074695 0.000000 0.000000 0.000000 8.676953 1.004261 -1.350252 3.267316 -13.917549 -4.629699 -24.638278 -12.444397 -40.360278 -0.762067 -47.205042 -4.660469 0.000000 0.000000 0.000000 7.166657 2.914380 0.363986 5.444878 18.964379 -1.716009 -24.204737 32.869042 13.146492 -1.155098 49.622765 -5.768320 0.000000 0.000000 0.000000 
